<?xml version="1.0" encoding="iso-8859-1"?>
<!-- Generator: Adobe Illustrator 19.0.0, SVG Export Plug-In . SVG Version: 6.00 Build 0)  -->
<svg version="1.1" id="Layer_1" xmlns="http://www.w3.org/2000/svg" xmlns:xlink="http://www.w3.org/1999/xlink" x="0px" y="0px"
	 viewBox="0 0 512 512" style="enable-background:new 0 0 512 512;" xml:space="preserve">
<path style="fill:#66C6B9;" d="M441.6,0H70.4c-18.133,0-32,13.867-32,32v448c0,18.133,13.867,32,32,32h371.2
	c18.133,0,32-13.867,32-32V32C473.6,13.867,458.667,0,441.6,0z"/>
<rect x="81.067" y="64" style="fill:#FFFFFF;" width="349.867" height="405.333"/>
<path style="fill:#E8EAE9;" d="M324.267,107.733H187.733c-18.133,0-33.067-14.933-33.067-33.067V32c0-3.2,3.2-6.4,6.4-6.4H352
	c3.2,0,6.4,3.2,6.4,6.4v42.667C358.4,92.8,343.467,107.733,324.267,107.733z M167.467,38.4v36.267
	c0,10.667,8.533,20.267,20.267,20.267h137.6C336,94.933,345.6,86.4,345.6,74.667V38.4C345.6,38.4,167.467,38.4,167.467,38.4z"/>
<path style="fill:#415A6B;" d="M312.533,13.867H199.467c-3.2,0-5.333,2.133-5.333,5.333v25.6c0,3.2,2.133,5.333,5.333,5.333h113.067
	c3.2,0,5.333-2.133,5.333-5.333V19.2C317.867,16,315.733,13.867,312.533,13.867z"/>
<path style="fill:#F3705A;" d="M259.2,274.133C258.133,274.133,258.133,274.133,259.2,274.133c-4.267,0-7.467-3.2-7.467-6.4
	l-17.067-87.467L217.6,226.133c-1.067,3.2-4.267,5.333-7.467,5.333h-83.2c-4.267,0-8.533-3.2-8.533-8.533
	c0-5.333,3.2-8.533,8.533-8.533H204.8l24.533-68.267c1.067-3.2,4.267-5.333,8.533-5.333c3.2,0,6.4,3.2,7.467,6.4l17.067,88.533
	l17.067-44.8c1.067-3.2,4.267-5.333,6.4-5.333c3.2,0,6.4,1.067,7.467,4.267l13.867,25.6h78.933c4.267,0,8.533,3.2,8.533,8.533
	c0,5.333-3.2,8.533-8.533,8.533h-83.2c-3.2,0-5.333-1.067-7.467-4.267L288,214.4l-21.333,54.4
	C265.6,272,262.4,274.133,259.2,274.133z"/>
<g>
	<rect x="118.4" y="333.867" style="fill:#E8EAE9;" width="275.2" height="25.6"/>
	<rect x="118.4" y="402.133" style="fill:#E8EAE9;" width="275.2" height="25.6"/>
</g>
<g>
</g>
<g>
</g>
<g>
</g>
<g>
</g>
<g>
</g>
<g>
</g>
<g>
</g>
<g>
</g>
<g>
</g>
<g>
</g>
<g>
</g>
<g>
</g>
<g>
</g>
<g>
</g>
<g>
</g>
</svg>
