<?xml version="1.0" encoding="iso-8859-1"?>
<!-- Generator: Adobe Illustrator 19.0.0, SVG Export Plug-In . SVG Version: 6.00 Build 0)  -->
<svg version="1.1" id="Capa_1" xmlns="http://www.w3.org/2000/svg" xmlns:xlink="http://www.w3.org/1999/xlink" x="0px" y="0px"
	 viewBox="0 0 456 456" style="enable-background:new 0 0 456 456;" xml:space="preserve">
<path style="fill:#F5F1EF;" d="M380,456L380,456c-22.4,0-40-17.6-40-40V48H36v368c0,22.4,17.6,40,40,40H380z"/>
<g>
	<polygon style="fill:#FFC117;" points="220,160 220,80 252,80 188,0 124,80 156,80 156,160 	"/>
	<rect x="156" y="192" style="fill:#FFC117;" width="64" height="32"/>
</g>
<g>
	<polygon style="opacity:0.3;fill:#E97424;enable-background:new    ;" points="212.8,31.2 184,160 220,160 220,80 252,80 	"/>
	<polygon style="opacity:0.3;fill:#E97424;enable-background:new    ;" points="220,224 220,192 176.8,192 169.6,224 	"/>
</g>
<path style="fill:#1588C9;" d="M340,264h80l0,0v152c0,22.4-17.6,40-40,40l0,0c-22.4,0-40-17.6-40-40V264L340,264z"/>
<path style="fill:#DEDAD8;" d="M340,416V48h-50.4c0,165.6-99.2,314.4-252,377.6c4,17.6,20,30.4,38.4,30.4h304
	C357.6,456,340,438.4,340,416z"/>
<g>
	<rect x="92" y="272" style="fill:#999999;" width="80" height="16"/>
	<rect x="92" y="312" style="fill:#999999;" width="192" height="16"/>
	<rect x="92" y="352" style="fill:#999999;" width="192" height="16"/>
	<rect x="268" y="408" style="fill:#999999;" width="16" height="16"/>
	<rect x="236" y="408" style="fill:#999999;" width="16" height="16"/>
</g>
<g>
</g>
<g>
</g>
<g>
</g>
<g>
</g>
<g>
</g>
<g>
</g>
<g>
</g>
<g>
</g>
<g>
</g>
<g>
</g>
<g>
</g>
<g>
</g>
<g>
</g>
<g>
</g>
<g>
</g>
</svg>
