<?xml version="1.0" encoding="iso-8859-1"?>
<!-- Generator: Adobe Illustrator 19.0.0, SVG Export Plug-In . SVG Version: 6.00 Build 0)  -->
<svg version="1.1" id="Capa_1" xmlns="http://www.w3.org/2000/svg" xmlns:xlink="http://www.w3.org/1999/xlink" x="0px" y="0px"
	 viewBox="0 0 512.003 512.003" style="enable-background:new 0 0 512.003 512.003;" xml:space="preserve">
<g>
	<circle style="fill:#F15F50;" cx="178.401" cy="170.403" r="26.4"/>
	<path style="fill:#F15F50;" d="M178.401,276.003c24.8,0,47.2-12,60.8-29.6c-9.6-24.8-32.8-42.4-60.8-42.4s-52,17.6-60.8,42.4
		C131.201,264.003,153.601,276.003,178.401,276.003z"/>
</g>
<path style="fill:#193651;" d="M178.401,284.003c-47.2,0-85.6-38.4-85.6-85.6s38.4-85.6,85.6-85.6s85.6,38.4,85.6,85.6
	S225.601,284.003,178.401,284.003z M178.401,128.803c-38.4,0-69.6,31.2-69.6,69.6s31.2,69.6,69.6,69.6s69.6-31.2,69.6-69.6
	S216.801,128.803,178.401,128.803z"/>
<g>
	<circle style="fill:#27A2DE;" cx="333.601" cy="170.403" r="26.4"/>
	<path style="fill:#27A2DE;" d="M333.601,276.003c24.8,0,47.2-12,60.8-29.6c-9.6-24.8-32.8-42.4-60.8-42.4s-52,17.6-60.8,42.4
		C287.201,264.003,308.801,276.003,333.601,276.003z"/>
</g>
<path style="fill:#193651;" d="M333.601,284.003c-47.2,0-85.6-38.4-85.6-85.6s38.4-85.6,85.6-85.6s85.6,38.4,85.6,85.6
	S380.801,284.003,333.601,284.003z M333.601,128.803c-38.4,0-69.6,31.2-69.6,69.6s31.2,69.6,69.6,69.6s69.6-31.2,69.6-69.6
	S372.001,128.803,333.601,128.803z"/>
<g>
	<circle style="fill:#FFBF5D;" cx="256.001" cy="305.603" r="26.4"/>
	<path style="fill:#FFBF5D;" d="M256.001,411.203c24.8,0,47.2-12,60.8-29.6c-9.6-24.8-32.8-42.4-60.8-42.4s-52,17.6-60.8,42.4
		C208.801,400.003,231.201,411.203,256.001,411.203z"/>
</g>
<g>
	<path style="fill:#193651;" d="M256.001,419.203c-47.2,0-85.6-38.4-85.6-85.6s38.4-85.6,85.6-85.6s85.6,38.4,85.6,85.6
		S303.201,419.203,256.001,419.203z M256.001,264.003c-38.4,0-69.6,31.2-69.6,69.6s31.2,69.6,69.6,69.6s69.6-31.2,69.6-69.6
		S294.401,264.003,256.001,264.003z"/>
	<polygon style="fill:#193651;" points="453.601,103.203 388.001,103.203 388.001,87.203 437.601,87.203 437.601,37.603 
		453.601,37.603 	"/>
	<polygon style="fill:#193651;" points="57.601,474.403 57.601,408.803 123.201,408.803 123.201,424.803 73.601,424.803 
		73.601,474.403 	"/>
	<path style="fill:#193651;" d="M44.801,400.803c-3.2-4.8-6.4-9.6-8.8-13.6l13.6-8c2.4,4.8,5.6,8.8,8,12.8L44.801,400.803z
		 M28.001,372.803c-2.4-4.8-4.8-9.6-7.2-15.2l14.4-6.4c2.4,4.8,4,9.6,6.4,13.6L28.001,372.803z M15.201,342.403
		c-1.6-5.6-3.2-10.4-4.8-16l15.2-4c1.6,4.8,3.2,9.6,4.8,14.4L15.201,342.403z M5.601,310.403c-0.8-5.6-2.4-11.2-3.2-16l16-2.4
		c0.8,4.8,1.6,10.4,2.4,15.2L5.601,310.403z M0.801,278.403c0-5.6-0.8-11.2-0.8-16.8h16c0,4.8,0,10.4,0.8,15.2L0.801,278.403z
		 M16.001,245.603l-16-0.8c0-5.6,0.8-11.2,1.6-16.8l16,1.6C16.801,235.203,16.801,240.803,16.001,245.603z M19.201,215.203l-16-2.4
		c0.8-5.6,2.4-11.2,3.2-16l16,3.2C21.601,204.803,20.801,209.603,19.201,215.203z M26.401,184.803l-15.2-4.8
		c1.6-5.6,3.2-10.4,5.6-15.2l15.2,5.6C30.401,175.203,28.001,180.003,26.401,184.803z M37.601,156.003l-14.4-6.4
		c2.4-4.8,4.8-9.6,7.2-14.4l14.4,7.2C42.401,146.403,40.001,151.203,37.601,156.003z M52.801,128.803l-13.6-8.8
		c3.2-4.8,6.4-9.6,9.6-13.6l12.8,9.6C58.401,120.003,55.201,124.003,52.801,128.803z M70.401,104.003l-12-10.4
		c3.2-4,7.2-8,11.2-12.8l12,11.2C76.801,96.003,73.601,100.003,70.401,104.003z M92.001,80.803l-11.2-12l2.4-2.4l10.4,12
		L92.001,80.803z"/>
	<path style="fill:#193651;" d="M432.001,92.803c-89.6-96.8-242.4-103.2-339.2-12.8l-11.2-12c104-96,265.6-89.6,361.6,14.4
		L432.001,92.803z"/>
	<path style="fill:#193651;" d="M428.801,444.803l-11.2-12l2.4-1.6l11.2,12L428.801,444.803z M443.201,431.203l-12-11.2
		c3.2-4,7.2-8,10.4-12l12,10.4C450.401,423.203,446.401,427.203,443.201,431.203z M464.001,405.603l-12.8-9.6
		c3.2-4,5.6-8.8,8.8-12.8l13.6,8.8C470.401,396.803,467.201,400.803,464.001,405.603z M481.601,377.603l-14.4-7.2
		c2.4-4.8,4.8-8.8,7.2-13.6l14.4,6.4C486.401,368.003,484.001,372.803,481.601,377.603z M495.201,347.203l-15.2-5.6
		c1.6-4.8,3.2-9.6,4.8-14.4l15.2,4.8C499.201,336.803,496.801,342.403,495.201,347.203z M504.801,316.003l-15.2-4
		c1.6-4.8,2.4-10.4,3.2-15.2l16,2.4C507.201,305.603,506.401,310.403,504.801,316.003z M510.401,283.203l-16-1.6
		c0.8-4.8,0.8-10.4,0.8-15.2l16,0.8C511.201,272.803,511.201,278.403,510.401,283.203z M496.001,251.203c0-4.8,0-10.4-0.8-15.2
		l16-1.6c0.8,5.6,0.8,11.2,0.8,16.8H496.001z M493.601,220.003c-0.8-4.8-1.6-10.4-2.4-15.2l16-3.2c0.8,5.6,2.4,11.2,3.2,16
		L493.601,220.003z M486.401,189.603c-1.6-4.8-3.2-9.6-4.8-14.4l15.2-5.6c1.6,5.6,3.2,10.4,4.8,16L486.401,189.603z
		 M476.001,160.803c-2.4-4.8-4-9.6-6.4-13.6l14.4-7.2c2.4,4.8,4.8,9.6,7.2,15.2L476.001,160.803z M462.401,132.803
		c-2.4-4.8-5.6-8.8-8-12.8l12.8-8.8c3.2,4.8,6.4,9.6,8.8,13.6L462.401,132.803z"/>
	<path style="fill:#193651;" d="M256.001,512.003c-3.2,0-7.2,0-10.4,0c-68-2.4-131.2-32-177.6-82.4l12-11.2
		c43.2,47.2,102.4,74.4,167.2,76.8c64,2.4,125.6-20,172-63.2l11.2,12C381.601,488.003,320.801,512.003,256.001,512.003z"/>
</g>
<g>
</g>
<g>
</g>
<g>
</g>
<g>
</g>
<g>
</g>
<g>
</g>
<g>
</g>
<g>
</g>
<g>
</g>
<g>
</g>
<g>
</g>
<g>
</g>
<g>
</g>
<g>
</g>
<g>
</g>
</svg>
